<?xml version="1.0" encoding="iso-8859-1"?>
<!-- Uploaded to: SVG Repo, www.svgrepo.com, Generator: SVG Repo Mixer Tools -->
<svg version="1.1" id="Layer_1" xmlns="http://www.w3.org/2000/svg" xmlns:xlink="http://www.w3.org/1999/xlink" 
	 viewBox="0 0 512 512" xml:space="preserve">
<rect x="112.477" y="191.625" style="fill:#FDD089;" width="271.748" height="31.97"/>
<rect x="112.477" y="191.625" style="fill:#F7931E;" width="223.793" height="31.97"/>
<path style="fill:#00A99D;" d="M359.934,175.641c0-61.8-49.93-111.897-111.73-111.897s-111.73,50.098-111.73,111.897v16.24h223.46
	V175.641z"/>
<path style="fill:#66CBC4;" d="M248.355,63.871c-6.832,0-13.488,0.772-19.981,1.945c52.249,9.435,91.916,70.979,91.916,126.065
	h39.963C360.252,129.52,310.154,63.871,248.355,63.871z"/>
<polyline style="fill:#F7931E;" points="136.457,223.25 160.436,502.646 336.274,502.646 360.252,223.077 "/>
<polyline style="fill:#BF161C;" points="247.684,351.94 320.289,351.94 312.296,479.78 184.414,479.78 176.421,351.94 
	215.464,351.94 "/>
<polygon style="fill:#FF1D25;" points="296.311,351.94 288.319,479.78 312.296,479.78 320.289,351.94 "/>
<polygon style="fill:#FDD089;" points="328.282,223.061 304.304,502.646 336.274,502.646 360.252,223.061 "/>
<rect x="136.455" y="223.595" style="fill:#66CBC4;" width="223.793" height="23.978"/>
<rect x="136.455" y="223.595" style="fill:#00A99D;" width="191.822" height="23.978"/>
<rect x="304.85" y="0.64" style="fill:#FF931E;" width="63.4" height="15.59"/>
<rect x="376.566" y="0.64" width="31.18" height="15.59"/>
<rect x="272.631" y="399.754" width="16.63" height="15.59"/>
<rect x="256.001" y="448.604" width="16.63" height="15.59"/>
<rect x="240.411" y="416.384" width="15.59" height="15.59"/>
<polygon points="247.684,360.255 311.991,360.255 311.537,367.53 296.534,367.53 296.534,383.121 310.562,383.121 308.482,416.38 
	289.258,416.38 289.258,431.97 307.507,431.97 304.973,472.505 191.737,472.505 191.217,464.19 200.913,464.19 200.913,448.6 
	190.242,448.6 187.188,399.75 200.913,399.75 200.913,384.16 186.213,384.16 184.718,360.255 215.464,360.255 215.464,344.665 
	168.123,344.665 177.091,488.095 319.62,488.095 328.586,344.665 247.684,344.665 "/>
<path d="M392.154,184.605H251.533l8.06-112.845c52.136,5.649,92.864,50.108,92.864,103.491h15.59
	c0-61.343-47.124-112.796-107.343-119.052l1.598-22.371c0.733-10.227,9.335-18.237,19.588-18.237h14.421V0h-14.421
	c-18.391,0-33.826,14.37-35.137,32.717l-1.635,22.888c-64.508,1.738-116.455,55.242-116.455,119.647h15.59
	c0-55.711,44.357-101.701,99.747-104.004l-8.097,113.358h-58.895v15.59h57.782l-1.113,15.59H119.844v-15.59h40.535v-15.59h-56.125
	v46.771h25.009L153.279,512H343.43l24.035-280.624h24.689L392.154,184.605L392.154,184.605z M232.563,231.376l-0.593,8.315h-86.348
	l-0.712-8.315H232.563z M329.119,496.41H167.593l-20.636-241.129h83.899l-14.254,199.548l15.55,1.11l14.333-200.659H349.77
	L329.119,496.41z M351.106,239.691H247.598l0.593-8.315h103.625L351.106,239.691z M376.563,215.785H249.306l1.113-15.59h126.145
	V215.785z"/>
<path style="fill:#FFFFFF;" d="M328.084,159.661h-15.59c0-27.023-21.156-48.159-48.179-48.159v-15.59
	C299.652,95.911,328.084,124.323,328.084,159.661z"/>
</svg>