<svg xmlns="http://www.w3.org/2000/svg" version="1.1" xmlns:xlink="http://www.w3.org/1999/xlink" xmlns:svgjs="http://svgjs.dev/svgjs" width="1000" height="739" viewBox="0 0 1000 739"><g transform="matrix(1,0,0,1,0.5878723038090925,0.299190283400776)"><svg viewBox="0 0 334 247" data-background-color="#ffffff" preserveAspectRatio="xMidYMid meet" height="739" width="1000" xmlns="http://www.w3.org/2000/svg" xmlns:xlink="http://www.w3.org/1999/xlink"><defs></defs><g id="tight-bounds" transform="matrix(1,0,0,1,-0.1963493494722286,-0.09999999999999432)"><svg viewBox="0 0 334.39269248293425 247.2" height="247.2" width="334.39269248293425"><g><svg viewBox="0 0 395.52 292.38839902277414" height="247.2" width="334.39269248293425"><g transform="matrix(1,0,0,1,0,175.86780635500844)"><svg viewBox="0 0 395.52 116.52059266776573" height="116.52059266776573" width="395.52"><g><svg viewBox="0 0 395.52 116.52059266776573" height="116.52059266776573" width="395.52"><g><svg viewBox="0 0 395.52 62.8456399132321" height="62.8456399132321" width="395.52"><g transform="matrix(1,0,0,1,0,0)"><svg width="395.52" viewBox="0.699999988079071 -36.22999954223633 230.47999572753906 36.630001068115234" height="62.8456399132321" data-palette-color="#f9e17e"><path d="M0.7-35.83L28.75-35.83 28.75-31.75 17.18-31.75 17.18 0 12.33 0 12.33-31.75 0.7-31.75 0.7-35.83ZM42.85-14.95L39.17-14.95 39.17 0 34.35 0 34.35-35.83 44.47-35.83Q47.87-35.83 50.35-35.14 52.82-34.45 54.44-33.15 56.05-31.85 56.82-30.01 57.6-28.18 57.6-25.9L57.6-25.9Q57.6-24 57-22.35 56.4-20.7 55.26-19.39 54.12-18.07 52.48-17.15 50.85-16.23 48.77-15.75L48.77-15.75Q49.67-15.23 50.37-14.23L50.37-14.23 60.82 0 56.52 0Q55.2 0 54.57-1.03L54.57-1.03 45.27-13.83Q44.85-14.43 44.35-14.69 43.85-14.95 42.85-14.95L42.85-14.95ZM39.17-32L39.17-18.48 44.25-18.48Q46.37-18.48 47.98-18.99 49.6-19.5 50.69-20.44 51.77-21.38 52.32-22.68 52.87-23.98 52.87-25.55L52.87-25.55Q52.87-28.75 50.76-30.38 48.65-32 44.47-32L44.47-32 39.17-32ZM66.05-35.83L88.12-35.83 88.12-31.88 70.92-31.88 70.92-19.98 84.85-19.98 84.85-16.18 70.92-16.18 70.92-3.95 88.12-3.95 88.12 0 66.05 0 66.05-35.83ZM105.54 0L90.94-35.83 94.82-35.83Q95.47-35.83 95.87-35.5 96.27-35.18 96.47-34.68L96.47-34.68 106.59-9.4Q106.94-8.55 107.23-7.55 107.52-6.55 107.79-5.48L107.79-5.48Q108.02-6.55 108.28-7.55 108.54-8.55 108.89-9.4L108.89-9.4 118.97-34.68Q119.14-35.1 119.57-35.46 119.99-35.83 120.62-35.83L120.62-35.83 124.52-35.83 109.92 0 105.54 0ZM134.84-35.83L134.84 0 129.99 0 129.99-35.83 134.84-35.83ZM163.96-32.52L162.79-30.23Q162.56-29.85 162.31-29.66 162.06-29.48 161.66-29.48L161.66-29.48Q161.24-29.48 160.68-29.9 160.11-30.33 159.25-30.84 158.39-31.35 157.18-31.78 155.96-32.2 154.24-32.2L154.24-32.2Q152.61-32.2 151.36-31.76 150.11-31.33 149.28-30.58 148.44-29.83 148.01-28.81 147.59-27.8 147.59-26.63L147.59-26.63Q147.59-25.13 148.33-24.14 149.06-23.15 150.28-22.45 151.49-21.75 153.03-21.24 154.56-20.73 156.18-20.18 157.79-19.63 159.33-18.94 160.86-18.25 162.08-17.2 163.29-16.15 164.03-14.63 164.76-13.1 164.76-10.88L164.76-10.88Q164.76-8.53 163.96-6.46 163.16-4.4 161.63-2.88 160.09-1.35 157.85-0.48 155.61 0.4 152.76 0.4L152.76 0.4Q149.29 0.4 146.43-0.86 143.56-2.13 141.54-4.28L141.54-4.28 142.94-6.58Q143.14-6.85 143.43-7.04 143.71-7.23 144.06-7.23L144.06-7.23Q144.59-7.23 145.26-6.66 145.94-6.1 146.95-5.43 147.96-4.75 149.4-4.19 150.84-3.63 152.91-3.63L152.91-3.63Q154.64-3.63 155.99-4.1 157.34-4.58 158.28-5.44 159.21-6.3 159.71-7.5 160.21-8.7 160.21-10.18L160.21-10.18Q160.21-11.8 159.48-12.84 158.74-13.88 157.54-14.58 156.34-15.28 154.8-15.76 153.26-16.25 151.65-16.76 150.04-17.28 148.5-17.95 146.96-18.63 145.76-19.7 144.56-20.78 143.83-22.39 143.09-24 143.09-26.38L143.09-26.38Q143.09-28.28 143.83-30.05 144.56-31.83 145.96-33.2 147.36-34.58 149.43-35.4 151.49-36.23 154.16-36.23L154.16-36.23Q157.16-36.23 159.64-35.27 162.11-34.33 163.96-32.52L163.96-32.52ZM204.21-17.9L204.21-17.9Q204.21-13.88 202.94-10.51 201.66-7.15 199.34-4.73 197.01-2.3 193.75-0.96 190.49 0.38 186.54 0.38L186.54 0.38Q182.59 0.38 179.34-0.96 176.09-2.3 173.76-4.73 171.44-7.15 170.16-10.51 168.89-13.88 168.89-17.9L168.89-17.9Q168.89-21.93 170.16-25.29 171.44-28.65 173.76-31.09 176.09-33.52 179.34-34.88 182.59-36.23 186.54-36.23L186.54-36.23Q190.49-36.23 193.75-34.88 197.01-33.52 199.34-31.09 201.66-28.65 202.94-25.29 204.21-21.93 204.21-17.9ZM199.24-17.9L199.24-17.9Q199.24-21.2 198.34-23.83 197.44-26.45 195.79-28.26 194.14-30.08 191.79-31.05 189.44-32.02 186.54-32.02L186.54-32.02Q183.66-32.02 181.31-31.05 178.96-30.08 177.3-28.26 175.64-26.45 174.74-23.83 173.84-21.2 173.84-17.9L173.84-17.9Q173.84-14.6 174.74-11.99 175.64-9.38 177.3-7.56 178.96-5.75 181.31-4.79 183.66-3.83 186.54-3.83L186.54-3.83Q189.44-3.83 191.79-4.79 194.14-5.75 195.79-7.56 197.44-9.38 198.34-11.99 199.24-14.6 199.24-17.9ZM215.68-35.83L215.68-4.08 231.18-4.08 231.18 0 210.83 0 210.83-35.83 215.68-35.83Z" opacity="1" transform="matrix(1,0,0,1,0,0)" fill="#f9e17e" class="undefined-text-0" data-fill-palette-color="primary" id="text-0"></path></svg></g></svg></g><g transform="matrix(1,0,0,1,117.7475564600895,77.68198720138828)"><svg viewBox="0 0 160.02488707982099 38.83860546637744" height="38.83860546637744" width="160.02488707982099"><g transform="matrix(1,0,0,1,0,0)"><svg width="160.02488707982099" viewBox="1.5099999904632568 -37.0099983215332 158.9199981689453 38.56999969482422" height="38.83860546637744" data-palette-color="#f9e17e"><path d="M24.12-26.17L24.12-26.17Q24.12-23.54 22.97-21 21.83-18.46 19.92-16.43 18.02-14.4 15.58-13.11 13.13-11.82 10.55-11.67L10.55-11.67Q10.5-10.79 10.47-9.45 10.45-8.11 10.3-6.64 10.16-5.18 9.89-3.71 9.62-2.25 9.11-1.07 8.59 0.1 7.79 0.83 6.98 1.56 5.81 1.56L5.81 1.56Q4.44 1.56 3.64 0.66 2.83-0.24 2.42-1.51 2-2.78 1.86-4.17 1.71-5.57 1.66-6.54L1.66-6.54Q1.56-7.96 1.54-9.33 1.51-10.69 1.51-12.11L1.51-12.11Q1.51-12.74 1.51-14.48 1.51-16.21 1.54-18.43 1.56-20.65 1.61-23.07 1.66-25.49 1.76-27.56 1.86-29.64 1.98-31.1 2.1-32.57 2.29-32.81L2.29-32.81Q2.34-32.86 2.59-33.03 2.83-33.2 3.13-33.37 3.42-33.54 3.66-33.69 3.91-33.84 4-33.89L4-33.89Q6.25-35.16 8.94-36.08 11.62-37.01 14.26-37.01L14.26-37.01Q16.5-37.01 18.33-36.11 20.17-35.21 21.46-33.72 22.75-32.23 23.44-30.25 24.12-28.27 24.12-26.17ZM15.67-25.05L15.67-25.05Q15.67-26.03 15.21-26.76 14.75-27.49 13.67-27.49L13.67-27.49Q12.74-27.49 11.82-27.12 10.89-26.76 10.11-26.37L10.11-26.37Q10.25-24.66 10.38-23.05 10.5-21.44 10.4-19.73L10.4-19.73Q11.18-20.12 12.11-20.63 13.04-21.14 13.82-21.78 14.6-22.41 15.14-23.22 15.67-24.02 15.67-25.05ZM33.35-34.08L33.35-34.08Q33.35-33.4 32.98-32.86 32.61-32.32 32.03-31.91 31.44-31.49 30.76-31.27 30.08-31.05 29.49-31.05L29.49-31.05Q28.51-31.05 27.78-31.54 27.05-32.03 27.05-33.06L27.05-33.06Q27.05-33.79 27.41-34.35 27.78-34.91 28.32-35.28 28.85-35.64 29.54-35.84 30.22-36.04 30.86-36.04L30.86-36.04Q31.78-36.04 32.57-35.6 33.35-35.16 33.35-34.08ZM33.74-17.48L33.74-17.48Q33.74-16.8 33.74-16.04 33.74-15.28 33.69-14.6L33.69-14.6Q33.64-13.77 33.64-12.38 33.64-10.99 33.54-9.38 33.44-7.76 33.23-6.1 33.01-4.44 32.52-3.08 32.03-1.71 31.22-0.85 30.42 0 29.2 0.05L29.2 0.05Q28.27 0.1 27.63-0.68 27-1.46 26.58-2.71 26.17-3.96 25.97-5.49 25.78-7.03 25.68-8.47 25.58-9.91 25.58-11.13 25.58-12.35 25.58-12.94L25.58-12.94Q25.58-13.72 25.58-15.16 25.58-16.6 25.68-18.26 25.78-19.92 26.05-21.63 26.32-23.34 26.83-24.76 27.34-26.17 28.17-27.05 29-27.93 30.27-27.93L30.27-27.93Q31.59-27.93 32.27-26.61 32.96-25.29 33.3-23.54 33.64-21.78 33.69-20.04 33.74-18.31 33.74-17.48ZM59.13-4.59L59.13-4.59Q59.13-3.61 58.32-2.88 57.51-2.15 56.27-1.56 55.02-0.98 53.44-0.59 51.85-0.2 50.31 0.05 48.77 0.29 47.41 0.42 46.04 0.54 45.21 0.54L45.21 0.54Q44.38 0.54 42.89 0.49 41.4 0.44 39.94 0.12 38.47-0.2 37.4-0.9 36.32-1.61 36.32-2.88L36.32-2.88Q36.32-3.86 37.01-5.27 37.69-6.69 38.76-8.35 39.84-10.01 41.16-11.74 42.48-13.48 43.75-15.09 45.01-16.7 46.14-18.04 47.26-19.38 47.9-20.26L47.9-20.26Q47.21-20.12 46.16-19.85 45.11-19.58 43.99-19.34 42.87-19.09 41.82-18.92 40.77-18.75 40.03-18.75L40.03-18.75Q39.45-18.75 38.72-18.97 37.98-19.19 37.32-19.58 36.66-19.97 36.2-20.51 35.74-21.04 35.74-21.73L35.74-21.73Q35.74-22.61 36.52-23.36 37.3-24.12 38.57-24.73 39.84-25.34 41.4-25.81 42.96-26.27 44.48-26.59 45.99-26.9 47.36-27.05 48.73-27.2 49.56-27.2L49.56-27.2Q50.48-27.2 51.8-27 53.12-26.81 54.37-26.32 55.61-25.83 56.49-25 57.37-24.17 57.37-22.9L57.37-22.9Q57.37-22.51 57.29-22.19 57.22-21.88 57.12-21.48L57.12-21.48Q57.03-21.14 56.27-19.95 55.51-18.75 54.41-17.11 53.32-15.48 52.02-13.6 50.73-11.72 49.56-10.06 48.38-8.4 47.5-7.13 46.63-5.86 46.33-5.42L46.33-5.42Q48.33-5.96 50.41-6.32 52.49-6.69 54.54-6.69L54.54-6.69Q55.02-6.69 55.81-6.64 56.59-6.59 57.32-6.37 58.05-6.15 58.59-5.74 59.13-5.32 59.13-4.59ZM82.02-4.59L82.02-4.59Q82.02-3.61 81.22-2.88 80.41-2.15 79.17-1.56 77.92-0.98 76.34-0.59 74.75-0.2 73.21 0.05 71.67 0.29 70.31 0.42 68.94 0.54 68.11 0.54L68.11 0.54Q67.28 0.54 65.79 0.49 64.3 0.44 62.83 0.12 61.37-0.2 60.3-0.9 59.22-1.61 59.22-2.88L59.22-2.88Q59.22-3.86 59.9-5.27 60.59-6.69 61.66-8.35 62.74-10.01 64.06-11.74 65.37-13.48 66.64-15.09 67.91-16.7 69.04-18.04 70.16-19.38 70.79-20.26L70.79-20.26Q70.11-20.12 69.06-19.85 68.01-19.58 66.89-19.34 65.76-19.09 64.71-18.92 63.66-18.75 62.93-18.75L62.93-18.75Q62.35-18.75 61.61-18.97 60.88-19.19 60.22-19.58 59.56-19.97 59.1-20.51 58.64-21.04 58.64-21.73L58.64-21.73Q58.64-22.61 59.42-23.36 60.2-24.12 61.47-24.73 62.74-25.34 64.3-25.81 65.86-26.27 67.38-26.59 68.89-26.9 70.26-27.05 71.62-27.2 72.45-27.2L72.45-27.2Q73.38-27.2 74.7-27 76.02-26.81 77.26-26.32 78.51-25.83 79.39-25 80.27-24.17 80.27-22.9L80.27-22.9Q80.27-22.51 80.19-22.19 80.12-21.88 80.02-21.48L80.02-21.48Q79.92-21.14 79.17-19.95 78.41-18.75 77.31-17.11 76.21-15.48 74.92-13.6 73.63-11.72 72.45-10.06 71.28-8.4 70.4-7.13 69.52-5.86 69.23-5.42L69.23-5.42Q71.23-5.96 73.31-6.32 75.38-6.69 77.43-6.69L77.43-6.69Q77.92-6.69 78.7-6.64 79.48-6.59 80.22-6.37 80.95-6.15 81.49-5.74 82.02-5.32 82.02-4.59ZM103.75-6.88L103.75-6.88Q103.75-6.01 103.68-4.59 103.6-3.17 103.26-1.83 102.92-0.49 102.19 0.49 101.45 1.46 100.14 1.46L100.14 1.46Q98.33 1.46 97.35 0.29 96.38-0.88 96.43-2.64L96.43-2.64Q94.86-1.27 92.89-0.49 90.91 0.29 88.86 0.29L88.86 0.29Q87.44 0.29 86.17-0.39 84.9-1.07 83.93-2.15 82.95-3.22 82.36-4.57 81.78-5.91 81.78-7.23L81.78-7.23Q81.78-9.57 83.22-11.33 84.66-13.09 86.76-14.33 88.86-15.58 91.23-16.31 93.59-17.04 95.45-17.29L95.45-17.29Q95.45-17.53 95.47-17.72 95.5-17.92 95.5-18.16L95.5-18.16Q95.5-19.68 94.67-20.61 93.84-21.53 92.32-21.53L92.32-21.53Q91.1-21.53 90.22-21.12 89.35-20.7 88.56-20.19 87.78-19.68 87-19.26 86.22-18.85 85.24-18.85L85.24-18.85Q84.17-18.85 83.41-19.53 82.66-20.21 82.66-21.29L82.66-21.29Q82.66-22.9 83.61-24.22 84.56-25.54 86-26.44 87.44-27.34 89.13-27.86 90.81-28.37 92.23-28.37L92.23-28.37Q93.54-28.37 94.86-28.05 96.18-27.73 97.35-27.08 98.53-26.42 99.48-25.46 100.43-24.51 101.02-23.24L101.02-23.24Q101.89-21.44 102.43-19.41 102.97-17.38 103.26-15.26 103.55-13.13 103.65-11.01 103.75-8.89 103.75-6.88ZM95.94-8.45L95.94-8.45 95.79-11.77Q95.69-11.77 95.6-11.79 95.5-11.82 95.4-11.82L95.4-11.82Q94.77-11.82 93.81-11.5 92.86-11.18 91.98-10.62 91.1-10.06 90.49-9.38 89.88-8.69 89.88-7.96L89.88-7.96Q89.88-7.28 90.37-7.03 90.86-6.79 91.49-6.79L91.49-6.79Q92.57-6.79 93.79-7.35 95.01-7.91 95.94-8.45ZM123.62-18.26L123.62-18.26Q122.94-18.21 122.45-18.38 121.96-18.55 121.47-18.75L121.47-18.75Q121.03-18.95 120.59-19.12 120.15-19.29 119.62-19.24L119.62-19.24Q118.64-19.19 117.88-18.7 117.13-18.21 116.52-17.48 115.91-16.75 115.47-15.84 115.03-14.94 114.78-14.06L114.78-14.06Q114.64-13.48 114.56-12.28 114.49-11.08 114.49-9.72L114.49-9.72Q114.44-8.3 114.44-7.03 114.44-5.76 114.34-5.03L114.34-5.03Q114.29-4.25 114.1-3.2 113.9-2.15 113.49-1.22 113.07-0.29 112.39 0.34 111.71 0.98 110.63 0.98L110.63 0.98Q109.8 0.98 109.19 0.49 108.58 0 108.17-0.81 107.75-1.61 107.48-2.69 107.21-3.76 107.07-4.88L107.07-4.88Q106.92-6.05 106.85-7.23 106.77-8.4 106.75-9.45 106.73-10.5 106.75-11.38 106.77-12.26 106.77-12.79L106.77-12.79Q106.73-14.5 106.6-16.24 106.48-17.97 106.48-19.68L106.48-19.68Q106.48-20.75 106.58-22.07 106.68-23.39 107.12-24.54 107.56-25.68 108.41-26.46 109.26-27.25 110.78-27.25L110.78-27.25Q111.61-27.25 112.19-26.71 112.78-26.17 113.15-25.39 113.51-24.61 113.71-23.73 113.9-22.85 113.95-22.12L113.95-22.12Q115.12-24.02 116.59-25.22 118.05-26.42 120.4-26.51L120.4-26.51Q121.57-26.56 122.72-26.29 123.86-26.03 124.82-25.42 125.77-24.8 126.38-23.83 126.99-22.85 127.04-21.53L127.04-21.53Q127.14-19.97 126.11-19.14 125.09-18.31 123.62-18.26ZM135.82-34.08L135.82-34.08Q135.82-33.4 135.46-32.86 135.09-32.32 134.51-31.91 133.92-31.49 133.24-31.27 132.55-31.05 131.97-31.05L131.97-31.05Q130.99-31.05 130.26-31.54 129.53-32.03 129.53-33.06L129.53-33.06Q129.53-33.79 129.89-34.35 130.26-34.91 130.8-35.28 131.33-35.64 132.02-35.84 132.7-36.04 133.33-36.04L133.33-36.04Q134.26-36.04 135.04-35.6 135.82-35.16 135.82-34.08ZM136.22-17.48L136.22-17.48Q136.22-16.8 136.22-16.04 136.22-15.28 136.17-14.6L136.17-14.6Q136.12-13.77 136.12-12.38 136.12-10.99 136.02-9.38 135.92-7.76 135.7-6.1 135.48-4.44 134.99-3.08 134.51-1.71 133.7-0.85 132.9 0 131.67 0.05L131.67 0.05Q130.75 0.1 130.11-0.68 129.48-1.46 129.06-2.71 128.65-3.96 128.45-5.49 128.26-7.03 128.16-8.47 128.06-9.91 128.06-11.13 128.06-12.35 128.06-12.94L128.06-12.94Q128.06-13.72 128.06-15.16 128.06-16.6 128.16-18.26 128.26-19.92 128.53-21.63 128.79-23.34 129.31-24.76 129.82-26.17 130.65-27.05 131.48-27.93 132.75-27.93L132.75-27.93Q134.07-27.93 134.75-26.61 135.43-25.29 135.78-23.54 136.12-21.78 136.17-20.04 136.22-18.31 136.22-17.48ZM160.43-6.88L160.43-6.88Q160.43-6.01 160.36-4.59 160.29-3.17 159.94-1.83 159.6-0.49 158.87 0.49 158.14 1.46 156.82 1.46L156.82 1.46Q155.01 1.46 154.04 0.29 153.06-0.88 153.11-2.64L153.11-2.64Q151.55-1.27 149.57-0.49 147.59 0.29 145.54 0.29L145.54 0.29Q144.12 0.29 142.85-0.39 141.58-1.07 140.61-2.15 139.63-3.22 139.05-4.57 138.46-5.91 138.46-7.23L138.46-7.23Q138.46-9.57 139.9-11.33 141.34-13.09 143.44-14.33 145.54-15.58 147.91-16.31 150.28-17.04 152.13-17.29L152.13-17.29Q152.13-17.53 152.16-17.72 152.18-17.92 152.18-18.16L152.18-18.16Q152.18-19.68 151.35-20.61 150.52-21.53 149.01-21.53L149.01-21.53Q147.79-21.53 146.91-21.12 146.03-20.7 145.25-20.19 144.46-19.68 143.68-19.26 142.9-18.85 141.93-18.85L141.93-18.85Q140.85-18.85 140.09-19.53 139.34-20.21 139.34-21.29L139.34-21.29Q139.34-22.9 140.29-24.22 141.24-25.54 142.68-26.44 144.12-27.34 145.81-27.86 147.49-28.37 148.91-28.37L148.91-28.37Q150.23-28.37 151.55-28.05 152.86-27.73 154.04-27.08 155.21-26.42 156.16-25.46 157.11-24.51 157.7-23.24L157.7-23.24Q158.58-21.44 159.11-19.41 159.65-17.38 159.94-15.26 160.24-13.13 160.33-11.01 160.43-8.89 160.43-6.88ZM152.62-8.45L152.62-8.45 152.47-11.77Q152.38-11.77 152.28-11.79 152.18-11.82 152.08-11.82L152.08-11.82Q151.45-11.82 150.5-11.5 149.54-11.18 148.66-10.62 147.79-10.06 147.17-9.38 146.56-8.69 146.56-7.96L146.56-7.96Q146.56-7.28 147.05-7.03 147.54-6.79 148.18-6.79L148.18-6.79Q149.25-6.79 150.47-7.35 151.69-7.91 152.62-8.45Z" opacity="1" transform="matrix(1,0,0,1,0,0)" fill="#f9e17e" class="undefined-text-1" data-fill-palette-color="secondary" id="text-1"></path></svg></g></svg></g></svg></g></svg></g><g transform="matrix(1,0,0,1,109.2490987566292,0)"><svg viewBox="0 0 177.0218024867416 161.03145906685225" height="161.03145906685225" width="177.0218024867416"><g><svg version="1.1" xmlns="http://www.w3.org/2000/svg" xmlns:xlink="http://www.w3.org/1999/xlink" x="8" y="0" viewBox="0.003000000026077032 0 99.99400329589844 100" enable-background="new 0.003 0 99.994 100" xml:space="preserve" width="161.0218024867416" height="161.03145906685225" class="icon-icon-0" data-fill-palette-color="accent" id="icon-0"><g fill="#f9e17e" data-fill-palette-color="accent"><path d="M33.326 0l-4.162 12.505c0.122 0.043 0.231 0.098 0.354 0.141L29 12.994c0 0 5.272 2.637 13.183 7.916 6.115 4.071 10.675 5.054 16.076 7.69 3.387 2.776 6.572 5.785 9.545 9.002 2.203 1.825 4.986 4.09 8.653 7.025 11.536 9.221 8.941 16.447 9.876 23.394 0.36 0.963 0.842 1.843 1.165 2.808l12.499-4.163C89.531 35.264 64.733 10.467 33.326 0z" fill="#f9e17e" data-fill-palette-color="accent"></path><path d="M58.002 57.814c-5.822 0-10.547 4.712-10.547 10.546 0 5.822 4.725 10.547 10.547 10.547 5.828 0 10.546-4.725 10.546-10.547C68.548 62.526 63.83 57.814 58.002 57.814z" fill="#f9e17e" data-fill-palette-color="accent"></path><path d="M15.822 84.182c5.817 0 10.547-4.726 10.547-10.547 0-5.823-4.729-10.547-10.547-10.547-1.336 0-2.6 0.317-3.771 0.769L6.984 79.041C8.84 82.068 12.021 84.182 15.822 84.182z" fill="#f9e17e" data-fill-palette-color="accent"></path><path d="M34.272 36.723c-2.911 0-5.272 2.355-5.272 5.278 0 2.905 2.361 5.268 5.272 5.268s5.272-2.361 5.272-5.268C39.545 39.079 37.184 36.723 34.272 36.723z" fill="#f9e17e" data-fill-palette-color="accent"></path><path d="M42.183 68.36c0-8.739 7.085-15.818 15.819-15.818 8.739 0 15.819 7.079 15.819 15.818 0 2.82-0.799 5.433-2.094 7.727L82.5 72.499c-0.557-1.672-1.337-3.223-1.99-4.834-0.438-6.128 1.545-11.692-9.319-20.396-3.008-2.411-5.412-4.356-7.422-6.012-2.037-2.197-4.106-4.382-6.357-6.372-6.195-3.369-11.108-4.205-17.865-8.709-6.354-4.235-10.851-6.683-12.432-7.519L14.005 57.998c0.598-0.073 1.196-0.184 1.818-0.184 8.734 0 15.819 7.079 15.819 15.819 0 8.739-7.085 15.819-15.819 15.819-4.21 0-8.02-1.686-10.851-4.357L0.003 100l51.591-17.199C46.058 80.335 42.183 74.817 42.183 68.36zM34.272 52.542c-5.821 0-10.546-4.718-10.546-10.541 0-5.828 4.725-10.546 10.546-10.546 5.829 0 10.546 4.719 10.546 10.546C44.818 47.824 40.102 52.542 34.272 52.542z" fill="#f9e17e" data-fill-palette-color="accent"></path></g></svg></g></svg></g><g><rect width="78.68544499809633" height="5.667484664075661" y="154.3639744027766" x="286.27090124337076" fill="#f9e17e" data-fill-palette-color="accent"></rect><rect width="78.68544499809633" height="5.667484664075661" y="154.3639744027766" x="30.563653758532865" fill="#f9e17e" data-fill-palette-color="accent"></rect><rect width="78.68544499809633" height="5.667484664075661" y="143.02900507462527" x="286.27090124337076" fill="#f9e17e" data-fill-palette-color="accent"></rect><rect width="78.68544499809633" height="5.667484664075661" y="143.02900507462527" x="30.563653758532865" fill="#f9e17e" data-fill-palette-color="accent"></rect></g></svg></g></svg><rect width="334.39269248293425" height="247.2" fill="none" stroke="none" visibility="hidden"></rect></g></svg></g></svg>